{
    "asset" : {
        "generator" : "Khronos glTF Blender I/O v3.2.43",
        "version" : "2.0"
    },
    "scene" : 0,
    "scenes" : [
        {
            "name" : "Scene",
            "nodes" : [
                0,
                1,
                2,
                3
            ]
        }
    ],
    "nodes" : [
        {
            "mesh" : 0,
            "name" : "Cube.001",
            "translation" : [
                -0.010585755109786987,
                1.2770639657974243,
                1.943730115890503
            ]
        },
        {
            "mesh" : 1,
            "name" : "Cube.002",
            "scale" : [
                1,
                1.6800000667572021,
                1
            ],
            "translation" : [
                -0.010585755109786987,
                1.8170639276504517,
                -1.9562697410583496
            ]
        },
        {
            "mesh" : 2,
            "name" : "Cube.003",
            "translation" : [
                -0.010585755109786987,
                2.1570639610290527,
                1.943730115890503
            ]
        },
        {
            "mesh" : 3,
            "name" : "Cube"
        }
    ],
    "materials" : [
        {
            "doubleSided" : true,
            "name" : "Material.001",
            "pbrMetallicRoughness" : {
                "baseColorFactor" : [
                    0.08571428060531616,
                    0.08571428060531616,
                    0.08571428060531616,
                    1
                ],
                "metallicFactor" : 0.5751634240150452,
                "roughnessFactor" : 0.5
            }
        },
        {
            "doubleSided" : true,
            "name" : "Glass",
            "pbrMetallicRoughness" : {
                "baseColorFactor" : [
                    0,
                    0,
                    0,
                    1
                ],
                "metallicFactor" : 0.29411762952804565,
                "roughnessFactor" : 0
            }
        }
    ],
    "meshes" : [
        {
            "name" : "Cube.001",
            "primitives" : [
                {
                    "attributes" : {
                        "POSITION" : 0,
                        "NORMAL" : 1,
                        "TEXCOORD_0" : 2
                    },
                    "indices" : 3
                }
            ]
        },
        {
            "name" : "Cube.008",
            "primitives" : [
                {
                    "attributes" : {
                        "POSITION" : 4,
                        "NORMAL" : 5,
                        "TEXCOORD_0" : 6
                    },
                    "indices" : 3
                }
            ]
        },
        {
            "name" : "Cube.009",
            "primitives" : [
                {
                    "attributes" : {
                        "POSITION" : 7,
                        "NORMAL" : 8,
                        "TEXCOORD_0" : 9,
                        "COLOR_0" : 10
                    },
                    "indices" : 3
                }
            ]
        },
        {
            "name" : "Cube.002",
            "primitives" : [
                {
                    "attributes" : {
                        "POSITION" : 11,
                        "NORMAL" : 12,
                        "TEXCOORD_0" : 13
                    },
                    "indices" : 14,
                    "material" : 0
                },
                {
                    "attributes" : {
                        "POSITION" : 15,
                        "NORMAL" : 16,
                        "TEXCOORD_0" : 17
                    },
                    "indices" : 18,
                    "material" : 1
                }
            ]
        }
    ],
    "accessors" : [
        {
            "bufferView" : 0,
            "componentType" : 5126,
            "count" : 264,
            "max" : [
                0.10932750254869461,
                0.3924032151699066,
                0.11691593378782272
            ],
            "min" : [
                -0.10932750254869461,
                -0.3924032151699066,
                -0.11691593378782272
            ],
            "type" : "VEC3"
        },
        {
            "bufferView" : 1,
            "componentType" : 5126,
            "count" : 264,
            "type" : "VEC3"
        },
        {
            "bufferView" : 2,
            "componentType" : 5126,
            "count" : 264,
            "type" : "VEC2"
        },
        {
            "bufferView" : 3,
            "componentType" : 5123,
            "count" : 516,
            "type" : "SCALAR"
        },
        {
            "bufferView" : 4,
            "componentType" : 5126,
            "count" : 264,
            "max" : [
                0.10932750254869461,
                0.3924032151699066,
                0.11691593378782272
            ],
            "min" : [
                -0.10932750254869461,
                -0.3924032151699066,
                -0.11691593378782272
            ],
            "type" : "VEC3"
        },
        {
            "bufferView" : 5,
            "componentType" : 5126,
            "count" : 264,
            "type" : "VEC3"
        },
        {
            "bufferView" : 6,
            "componentType" : 5126,
            "count" : 264,
            "type" : "VEC2"
        },
        {
            "bufferView" : 7,
            "componentType" : 5126,
            "count" : 264,
            "max" : [
                0.10932750254869461,
                0.3924032151699066,
                0.11691593378782272
            ],
            "min" : [
                -0.10932750254869461,
                -0.3924032151699066,
                -0.11691593378782272
            ],
            "type" : "VEC3"
        },
        {
            "bufferView" : 8,
            "componentType" : 5126,
            "count" : 264,
            "type" : "VEC3"
        },
        {
            "bufferView" : 9,
            "componentType" : 5126,
            "count" : 264,
            "type" : "VEC2"
        },
        {
            "bufferView" : 10,
            "componentType" : 5123,
            "count" : 264,
            "normalized" : true,
            "type" : "VEC4"
        },
        {
            "bufferView" : 11,
            "componentType" : 5126,
            "count" : 440,
            "max" : [
                0.23020702600479126,
                3.546905755996704,
                2.0045018196105957
            ],
            "min" : [
                -0.23020702600479126,
                -3.546905755996704,
                -2.0045018196105957
            ],
            "type" : "VEC3"
        },
        {
            "bufferView" : 12,
            "componentType" : 5126,
            "count" : 440,
            "type" : "VEC3"
        },
        {
            "bufferView" : 13,
            "componentType" : 5126,
            "count" : 440,
            "type" : "VEC2"
        },
        {
            "bufferView" : 14,
            "componentType" : 5123,
            "count" : 780,
            "type" : "SCALAR"
        },
        {
            "bufferView" : 15,
            "componentType" : 5126,
            "count" : 172,
            "max" : [
                0.23020702600479126,
                3.546905755996704,
                2.0045018196105957
            ],
            "min" : [
                0.23020702600479126,
                -3.546905755996704,
                -2.0045018196105957
            ],
            "type" : "VEC3"
        },
        {
            "bufferView" : 16,
            "componentType" : 5126,
            "count" : 172,
            "type" : "VEC3"
        },
        {
            "bufferView" : 17,
            "componentType" : 5126,
            "count" : 172,
            "type" : "VEC2"
        },
        {
            "bufferView" : 18,
            "componentType" : 5123,
            "count" : 264,
            "type" : "SCALAR"
        }
    ],
    "bufferViews" : [
        {
            "buffer" : 0,
            "byteLength" : 3168,
            "byteOffset" : 0
        },
        {
            "buffer" : 0,
            "byteLength" : 3168,
            "byteOffset" : 3168
        },
        {
            "buffer" : 0,
            "byteLength" : 2112,
            "byteOffset" : 6336
        },
        {
            "buffer" : 0,
            "byteLength" : 1032,
            "byteOffset" : 8448
        },
        {
            "buffer" : 0,
            "byteLength" : 3168,
            "byteOffset" : 9480
        },
        {
            "buffer" : 0,
            "byteLength" : 3168,
            "byteOffset" : 12648
        },
        {
            "buffer" : 0,
            "byteLength" : 2112,
            "byteOffset" : 15816
        },
        {
            "buffer" : 0,
            "byteLength" : 3168,
            "byteOffset" : 17928
        },
        {
            "buffer" : 0,
            "byteLength" : 3168,
            "byteOffset" : 21096
        },
        {
            "buffer" : 0,
            "byteLength" : 2112,
            "byteOffset" : 24264
        },
        {
            "buffer" : 0,
            "byteLength" : 2112,
            "byteOffset" : 26376
        },
        {
            "buffer" : 0,
            "byteLength" : 5280,
            "byteOffset" : 28488
        },
        {
            "buffer" : 0,
            "byteLength" : 5280,
            "byteOffset" : 33768
        },
        {
            "buffer" : 0,
            "byteLength" : 3520,
            "byteOffset" : 39048
        },
        {
            "buffer" : 0,
            "byteLength" : 1560,
            "byteOffset" : 42568
        },
        {
            "buffer" : 0,
            "byteLength" : 2064,
            "byteOffset" : 44128
        },
        {
            "buffer" : 0,
            "byteLength" : 2064,
            "byteOffset" : 46192
        },
        {
            "buffer" : 0,
            "byteLength" : 1376,
            "byteOffset" : 48256
        },
        {
            "buffer" : 0,
            "byteLength" : 528,
            "byteOffset" : 49632
        }
    ],
    "buffers" : [
        {
            "byteLength" : 50160,
            "uri" : "scene.bin"
        }
    ]
}
